<svg xmlns="http://www.w3.org/2000/svg" viewBox="0 0 114.86 114.86"><defs><style>.cls-1{fill:#fff;}</style></defs><title>Asset 1</title><g id="Layer_2" data-name="Layer 2"><g id="Layer_1-2" data-name="Layer 1"><path d="M0,114.72V0H114.72V114.72ZM43,46.81c-1.74,1.9-1.22,4.37.34,6a14.58,14.58,0,0,0,7.45,4c2.84.7,4.3,2.57,4.39,4.85a5.32,5.32,0,0,1-6.45,5.59A4.46,4.46,0,0,1,44.93,64a5.18,5.18,0,0,1,1-5.38c.63-.66,1.38-1.21,2.08-1.83a5.12,5.12,0,0,1-.91-.43A1.49,1.49,0,0,0,45,56.6a8.21,8.21,0,0,0-1.12,1.21,7.47,7.47,0,0,0-1.34,4,6.83,6.83,0,0,0,6.86,7.55,8.16,8.16,0,0,0,4.66-1.29,6.15,6.15,0,0,0,2.64-3.18,8.4,8.4,0,0,0,.42-4.12,5.71,5.71,0,0,0-2.88-4.48,37.65,37.65,0,0,0-4.5-2c-2-.78-3.58-1.92-3.87-4.15a2.82,2.82,0,0,0-1.07-1.88C44.22,47.78,43.62,47.32,43,46.81Zm28.8,0c-.79.69-1.59,1.37-2.36,2.08a1.29,1.29,0,0,0-.36.75,5,5,0,0,1-1.28,3,8,8,0,0,1-3.48,2,12.76,12.76,0,0,0-4.4,2.17c-2.29,2-2.62,4.57-2,7.36a5.37,5.37,0,0,0,1.88,3.24,8.24,8.24,0,0,0,6.46,1.89,7.13,7.13,0,0,0,3.95-1.8,6.53,6.53,0,0,0,2.08-4.93,7.69,7.69,0,0,0-1.49-5c-1.23-1.62-2.6-1.82-3.82-.49.11.07.22.15.34.21a5.24,5.24,0,0,1,2.78,6.11,4.47,4.47,0,0,1-4,3.92,5.38,5.38,0,0,1-6.17-7c.14-.4.54-.69.7-1.09a2.69,2.69,0,0,1,1.5-1.6c1.45-.57,2.94-1,4.39-1.56a11.16,11.16,0,0,0,5.54-3.91A4,4,0,0,0,71.81,46.82Zm-4.25,4.59a2.09,2.09,0,0,0-.44-.3,26.89,26.89,0,0,0-7.9-1.5c-1.53-.1-3.08.08-4.62.11a26.24,26.24,0,0,0-6.18,1.14c-1.27.33-1.29.51-.37,1.44a3.12,3.12,0,0,0,.34.34,2,2,0,0,0,2.06.57A13.61,13.61,0,0,1,54,52.6a40,40,0,0,1,5,0c2,.13,3.93.43,5.88.68a3.7,3.7,0,0,0,2.62-1.72S67.52,51.52,67.56,51.41Zm23.9-14.28a6.71,6.71,0,0,0,2-3.08,9.4,9.4,0,0,0-.67-6.45c-.43-1-1-2-1.52-3.19A21.84,21.84,0,0,0,89,30.15,7,7,0,0,0,91.46,37.12ZM79.8,22.3c.33,1.34.58,2.55.94,3.73a8.71,8.71,0,0,0,3.17,4.9,6.94,6.94,0,0,0,4,1.23,7,7,0,0,0-2.21-6.39A19,19,0,0,0,79.8,22.3Zm10.57,18a7,7,0,0,0-.73-3.62,9.33,9.33,0,0,0-4.95-4.1c-1-.45-2.12-.78-3.31-1.21a19.37,19.37,0,0,0,2.57,6A6.75,6.75,0,0,0,90.37,40.32Zm-4.09-.12a16,16,0,0,0,1.29,7.33,6.7,6.7,0,0,0,5,3.6,6.84,6.84,0,0,0-.75-6.08A17.19,17.19,0,0,0,86.28,40.2ZM94,46.52A6.91,6.91,0,0,0,97.1,42.8a10.6,10.6,0,0,0,.1-5.6c-.21-1-.5-2-.78-3.15a19.16,19.16,0,0,0-3.56,5.6A6.92,6.92,0,0,0,94,46.52Zm6.16-2c-1.08.7-2.06,1.26-3,1.93a9.51,9.51,0,0,0-3.56,4.23,6.76,6.76,0,0,0,0,4.7,6.85,6.85,0,0,0,5.07-3.88A17.83,17.83,0,0,0,100.19,44.49ZM23.78,24.74c-.12.11-.22.17-.27.25a16.5,16.5,0,0,0-2.27,6.25,6.76,6.76,0,0,0,2.26,5.93A6.64,6.64,0,0,0,26,32.93C26.41,29.91,25.15,27.34,23.78,24.74Zm-4,45.81c0,.11,0,.18.09.23a17.77,17.77,0,0,0,5.27,4.1,6.8,6.8,0,0,0,5.83,0c.38-.17.63-.35.39-.83a6.72,6.72,0,0,0-4.23-3.64C24.7,69.76,22.26,70.13,19.8,70.55ZM77,67.45A17.52,17.52,0,0,0,72.5,72.9a6.81,6.81,0,0,0,.08,5.77c.24.56.57.71,1,.31A19.68,19.68,0,0,0,76,76.87a6.71,6.71,0,0,0,1.33-3.8A20.34,20.34,0,0,0,77,67.45Zm13.39-7a6.81,6.81,0,0,0,1-4.6A10.24,10.24,0,0,0,89,51c-.69-.87-1.46-1.67-2.29-2.61-.12.57-.21.95-.28,1.33a14.61,14.61,0,0,0-.15,5.92A6.85,6.85,0,0,0,90.37,60.49ZM42.06,79.4A6.76,6.76,0,0,0,42.84,74c-.8-2.62-2.65-4.48-4.65-6.22,0,0-.09,0-.18,0A16.41,16.41,0,0,0,37.82,74,6.89,6.89,0,0,0,42.06,79.4Zm18.33,5.26c.26.38.47.74.73,1.06a7,7,0,0,0,5.5,2.64,19.5,19.5,0,0,0,6-.88c-2-1.73-3.85-3.33-6.29-4A6.77,6.77,0,0,0,60.39,84.65ZM26,77.63c1,.66,1.91,1.27,2.83,1.78A10,10,0,0,0,34.38,81a6.72,6.72,0,0,0,4.06-1.71A6.76,6.76,0,0,0,32.74,76,17.55,17.55,0,0,0,26,77.63ZM91.25,62.11c.46.06.84.14,1.23.15a7,7,0,0,0,5.29-2.16,19.12,19.12,0,0,0,3.59-5.47,17.34,17.34,0,0,0-6.73,1.88A6.78,6.78,0,0,0,91.25,62.11ZM83.39,74.51a6.62,6.62,0,0,0,5.72.58,15.08,15.08,0,0,0,6-4.46s0-.08,0-.17a19.4,19.4,0,0,0-6.18-.32A7,7,0,0,0,83.39,74.51ZM35.12,22.44a18.17,18.17,0,0,0-6,3.66,6.79,6.79,0,0,0-2,5.39c0,.53.24.75.78.67a6.74,6.74,0,0,0,3.75-1.62C34,28.4,34.47,25.45,35.12,22.44Zm7.25,65.13c2.86.73,5.6,1.36,8.4.45a6.79,6.79,0,0,0,3.79-3.23,6.31,6.31,0,0,0-4.94-1.44C46.69,83.75,44.59,85.63,42.37,87.57ZM30.06,57.15a16.2,16.2,0,0,0-3.65,6.71,6.54,6.54,0,0,0,1.06,5.21c.2.28.35.46.71.2a6.89,6.89,0,0,0,3.15-5.64A19.67,19.67,0,0,0,30.06,57.15Zm16.11,25a6.83,6.83,0,0,0-6.71-1.48,18,18,0,0,0-5.68,3.27c2.65,1,5.2,1.72,7.93,1.23A6.8,6.8,0,0,0,46.17,82.14ZM24.65,60.57a7.05,7.05,0,0,0,3.81-3.95,13.14,13.14,0,0,0,.09-6.84c-.07-.37-.17-.73-.28-1.2-2,2-3.74,4-4.46,6.63A6.57,6.57,0,0,0,24.65,60.57Zm-9.55,2c.68,1,1.21,1.78,1.82,2.55a11.09,11.09,0,0,0,4,3.44,6.7,6.7,0,0,0,5.1.22,6.68,6.68,0,0,0-3.48-4.88C20.27,62.78,17.81,62.62,15.1,62.59ZM87.3,69.46c.37-.75.78-1.42,1-2.14a6.58,6.58,0,0,0,0-4.41,17.74,17.74,0,0,0-3.43-5.8,16.48,16.48,0,0,0-1.22,7.14A6.78,6.78,0,0,0,87.3,69.46ZM20.94,46.57A7.06,7.06,0,0,0,22.5,43c.38-3.63-1.82-6.12-3.87-8.82a17.61,17.61,0,0,0-1.05,7.15A7,7,0,0,0,20.94,46.57ZM13.63,54.7c.27.54.47,1,.7,1.41a13.81,13.81,0,0,0,4.15,5.11,6.9,6.9,0,0,0,5.27,1A6.8,6.8,0,0,0,20.91,57C18.76,55.47,16.25,55.09,13.63,54.7Zm8.82-3.47a6.91,6.91,0,0,0,5.31-4.36,16.47,16.47,0,0,0,.93-5.43c0-.31,0-.61,0-1.08C26.22,41.91,24,43.47,22.74,46A6.78,6.78,0,0,0,22.45,51.23Zm11.4,11.31c-.22.39-.37.64-.49.89a13.74,13.74,0,0,0-1.86,6.87,6.81,6.81,0,0,0,2.37,4.78A7,7,0,0,0,36.26,71C36.74,67.85,35.26,65.28,33.85,62.53ZM53.49,81.9A7.18,7.18,0,0,0,52,77.58c-2.09-2.53-5.08-3.11-8.13-3.81a18.49,18.49,0,0,0,3.37,5.9A6.84,6.84,0,0,0,53.49,81.9ZM81.2,62.42a19.8,19.8,0,0,0-2.43,6,6.64,6.64,0,0,0,2.42,6.53A6.43,6.43,0,0,0,83.39,71C83.91,67.9,82.59,65.23,81.2,62.42ZM33.61,31.51c-1,.36-1.88.62-2.71,1a10.71,10.71,0,0,0-5.1,3.66,6.89,6.89,0,0,0-1.15,4.23,6.58,6.58,0,0,0,5.13-1.55C31.94,36.92,32.71,34.3,33.61,31.51Zm66.25,31.1a3.28,3.28,0,0,0-.41-.07,18.49,18.49,0,0,0-5.8.8,6.89,6.89,0,0,0-4.59,4.86c-.11.36,0,.63.35.65a16.19,16.19,0,0,0,3.42,0c2.08-.36,3.55-1.8,4.86-3.34C98.45,64.66,99.1,63.65,99.86,62.61ZM81.24,83.85c-.43-.33-.76-.6-1.11-.85a14.56,14.56,0,0,0-5.36-2.63A6.69,6.69,0,0,0,68.89,82a6.3,6.3,0,0,0,3.71,2.88C75.58,85.71,78.37,84.87,81.24,83.85Zm-19.71-2a6.64,6.64,0,0,0,4.31-.75c2.82-1.63,4-4.42,5.14-7.35a32.78,32.78,0,0,0-4.69,1.38A7,7,0,0,0,61.53,81.82ZM14.85,44.68a19.31,19.31,0,0,0,1.1,6.13,7.28,7.28,0,0,0,2.64,3.47,5.81,5.81,0,0,0,2.77,1.09A7,7,0,0,0,21,50C19.59,47.53,17.32,46.13,14.85,44.68ZM89,77.54A16.83,16.83,0,0,0,82,76a6.76,6.76,0,0,0-5.43,3.25,6.84,6.84,0,0,0,3.51,1.63C83.54,81.28,86.17,79.42,89,77.54ZM51.83,53.94a2.08,2.08,0,0,0,.32.29c.74.38,1.48.79,2.24,1.11a3.42,3.42,0,0,0,1.28.25,20.39,20.39,0,0,1,3.08,0,2.84,2.84,0,0,0,2-.32c.73-.41,1.52-.72,2.41-1.13A24.56,24.56,0,0,0,51.83,53.94ZM64.65,64.37A2.31,2.31,0,0,0,67,62.07a2.44,2.44,0,0,0-2.45-2.36,2.26,2.26,0,0,0-2.26,2.49A2.19,2.19,0,0,0,64.65,64.37ZM52.57,62.09a2.31,2.31,0,0,0-2.29-2.4,2.52,2.52,0,0,0-2.4,2.37,2.42,2.42,0,0,0,2.41,2.3A2.21,2.21,0,0,0,52.57,62.09ZM44.44,40c1.39.91,2.69,1,3.7.23a2.41,2.41,0,0,0,.9-2.83c-1-2.24-2.65-2.2-4.55-1.16l-.15-.54-.72,0v7.36l.82,0Zm26.85-1a3.36,3.36,0,0,1-4.75.11,3.19,3.19,0,1,1,4.58-4.45l.64-.46a4.1,4.1,0,0,0-4.7-.85,3.74,3.74,0,0,0-2.3,4.08,3.79,3.79,0,0,0,3.13,3.26c1.77.33,3.38-.22,4-1.38ZM57.43,66.58c-.31,1.52-1.44,2.23-2.78,2.86,1.83,1,2.28,2.75,2.77,4.57.55-1.81.93-3.59,2.77-4.56C58.9,68.8,57.73,68.13,57.43,66.58ZM41.81,34a3.06,3.06,0,0,0-3.44-.75A1.92,1.92,0,0,0,37,35.07a1.8,1.8,0,0,0,1.24,1.81c.58.23,1.18.39,1.77.6.79.29,1.14.77,1.06,1.42a1.56,1.56,0,0,1-1.42,1.21,2.31,2.31,0,0,1-2.15-.89l-.72.52a3.38,3.38,0,0,0,3.44,1,2.06,2.06,0,0,0,1.72-1.83,1.89,1.89,0,0,0-1.43-2.1c-.56-.21-1.14-.36-1.7-.57s-1-.55-.93-1.22A1.32,1.32,0,0,1,39,33.83a2.23,2.23,0,0,1,2.18.65Zm15.84,1.76v4.87l.85,0c0-1-.05-2,0-2.93a1.31,1.31,0,0,1,1.2-1.31c.63-.06,1.27,0,2,0,0,1.12,0,2.09,0,3.05a1.18,1.18,0,0,0,1.26,1.32,6,6,0,0,0,1-.11V40c-.26,0-.52.15-.7.07s-.64-.35-.65-.55c-.07-1,0-2,0-3.05L64,36.36a2.1,2.1,0,0,0,0-.47c-.46-.1-.92-.16-1.4-.23l-.08-1.24h-.77l-.07,1.32c-1.13,0-2.32-.5-3.17.66l-.17-.65ZM80.12,39.3a2.16,2.16,0,0,1-2.53.65,1.68,1.68,0,0,1-1-1.55h4.26a2.25,2.25,0,0,0-1.67-2.7,2.76,2.76,0,0,0-3.33,1.55,2.57,2.57,0,0,0,1.12,3.17,2.89,2.89,0,0,0,3.73-.74ZM53.2,40.78A2.6,2.6,0,0,0,56,38.22a2.85,2.85,0,0,0-5.67,0A2.59,2.59,0,0,0,53.2,40.78Zm5.92,42.75a1.64,1.64,0,0,0-3.29,0,1.64,1.64,0,1,0,3.29,0ZM69.65,55.38,72,58.14c-.06-1.3.31-2.77-.81-4Zm-26.92,2.5,2.33-2.62-1.61-1.17C42.42,55.28,42.81,56.66,42.73,57.88ZM74,40.61V35.8h-.75v4.82ZM74.28,34v-.25c-.2-.13-.41-.37-.6-.36s-.39.26-.58.41c.18.19.34.47.55.52S74.07,34.16,74.28,34Z"/><path class="cls-1" d="M0,114.72H114.72V0s.13,0,.13.07c0,.18,0,.37,0,.55V114.86H.62A3,3,0,0,1,0,114.72Z"/><path class="cls-1" d="M43,46.81c.61.51,1.21,1,1.77,1.47a2.82,2.82,0,0,1,1.07,1.88c.29,2.22,1.91,3.37,3.87,4.15a37.65,37.65,0,0,1,4.5,2,5.71,5.71,0,0,1,2.88,4.48,8.4,8.4,0,0,1-.42,4.12,6.15,6.15,0,0,1-2.64,3.18,8.16,8.16,0,0,1-4.66,1.29,6.83,6.83,0,0,1-6.86-7.55,7.47,7.47,0,0,1,1.34-4A8.21,8.21,0,0,1,45,56.6a1.49,1.49,0,0,1,2.07-.21,5.12,5.12,0,0,0,.91.43c-.7.61-1.45,1.16-2.08,1.83a5.18,5.18,0,0,0-1,5.38,4.46,4.46,0,0,0,3.82,3.27,5.32,5.32,0,0,0,6.45-5.59c-.09-2.28-1.55-4.15-4.39-4.85a14.58,14.58,0,0,1-7.45-4C41.79,51.18,41.27,48.71,43,46.81Z"/><path class="cls-1" d="M71.81,46.82a4,4,0,0,1,.26,5.3A11.16,11.16,0,0,1,66.54,56c-1.45.56-2.95,1-4.39,1.56a2.69,2.69,0,0,0-1.5,1.6c-.16.39-.56.69-.7,1.09a5.38,5.38,0,0,0,6.17,7,4.47,4.47,0,0,0,4-3.92,5.24,5.24,0,0,0-2.78-6.11c-.12-.06-.22-.14-.34-.21,1.22-1.33,2.58-1.14,3.82.49a7.69,7.69,0,0,1,1.49,5,6.53,6.53,0,0,1-2.08,4.93,7.13,7.13,0,0,1-3.95,1.8,8.24,8.24,0,0,1-6.46-1.89,5.37,5.37,0,0,1-1.88-3.24c-.62-2.79-.29-5.36,2-7.36a12.76,12.76,0,0,1,4.4-2.17,8,8,0,0,0,3.48-2,5,5,0,0,0,1.28-3,1.29,1.29,0,0,1,.36-.75C70.22,48.18,71,47.51,71.81,46.82Z"/><path class="cls-1" d="M67.56,51.41c0,.11-.05.13-.06.15a3.7,3.7,0,0,1-2.62,1.72c-2-.26-3.92-.55-5.88-.68a40,40,0,0,0-5,0,13.61,13.61,0,0,0-3.54.6,2,2,0,0,1-2.06-.57,3.12,3.12,0,0,1-.34-.34c-.92-.92-.9-1.11.37-1.44a26.24,26.24,0,0,1,6.18-1.14c1.54,0,3.09-.2,4.62-.11a26.89,26.89,0,0,1,7.9,1.5A2.09,2.09,0,0,1,67.56,51.41Z"/><path class="cls-1" d="M91.46,37.12a7,7,0,0,1-2.44-7,21.84,21.84,0,0,1,2.28-5.74c.55,1.14,1.09,2.14,1.52,3.19A9.4,9.4,0,0,1,93.49,34,6.71,6.71,0,0,1,91.46,37.12Z"/><path class="cls-1" d="M79.8,22.3a19,19,0,0,1,5.86,3.46,7,7,0,0,1,2.21,6.39,6.94,6.94,0,0,1-4-1.23A8.71,8.71,0,0,1,80.74,26C80.38,24.85,80.13,23.64,79.8,22.3Z"/><path class="cls-1" d="M90.37,40.32a6.75,6.75,0,0,1-6.42-3,19.37,19.37,0,0,1-2.57-6c1.18.43,2.27.77,3.31,1.21a9.33,9.33,0,0,1,4.95,4.1A7,7,0,0,1,90.37,40.32Z"/><path class="cls-1" d="M86.28,40.2a17.19,17.19,0,0,1,5.53,4.85,6.84,6.84,0,0,1,.75,6.08,6.7,6.7,0,0,1-5-3.6A16,16,0,0,1,86.28,40.2Z"/><path class="cls-1" d="M94,46.52a6.92,6.92,0,0,1-1.18-6.87,19.16,19.16,0,0,1,3.56-5.6c.29,1.13.58,2.13.78,3.15a10.6,10.6,0,0,1-.1,5.6A6.91,6.91,0,0,1,94,46.52Z"/><path class="cls-1" d="M100.19,44.49a17.83,17.83,0,0,1-1.45,7,6.85,6.85,0,0,1-5.07,3.88,6.76,6.76,0,0,1,0-4.7,9.51,9.51,0,0,1,3.56-4.23C98.14,45.76,99.11,45.19,100.19,44.49Z"/><path class="cls-1" d="M23.78,24.74c1.37,2.61,2.63,5.17,2.25,8.19a6.64,6.64,0,0,1-2.53,4.25,6.76,6.76,0,0,1-2.26-5.93A16.5,16.5,0,0,1,23.51,25C23.56,24.91,23.66,24.85,23.78,24.74Z"/><path class="cls-1" d="M19.8,70.55c2.46-.42,4.9-.79,7.34-.1a6.72,6.72,0,0,1,4.23,3.64c.25.48,0,.66-.39.83a6.8,6.8,0,0,1-5.83,0,17.77,17.77,0,0,1-5.27-4.1S19.84,70.66,19.8,70.55Z"/><path class="cls-1" d="M77,67.45a20.34,20.34,0,0,1,.31,5.61A6.71,6.71,0,0,1,76,76.87,19.68,19.68,0,0,1,73.62,79c-.47.4-.8.25-1-.31a6.81,6.81,0,0,1-.08-5.77A17.52,17.52,0,0,1,77,67.45Z"/><path class="cls-1" d="M90.37,60.49a6.85,6.85,0,0,1-4.08-4.83,14.61,14.61,0,0,1,.15-5.92c.07-.38.16-.76.28-1.33.83.94,1.61,1.74,2.29,2.61a10.24,10.24,0,0,1,2.36,4.86A6.81,6.81,0,0,1,90.37,60.49Z"/><path class="cls-1" d="M42.06,79.4A6.89,6.89,0,0,1,37.82,74,16.41,16.41,0,0,1,38,67.75c.09,0,.16,0,.18,0,2,1.74,3.85,3.6,4.65,6.22A6.76,6.76,0,0,1,42.06,79.4Z"/><path class="cls-1" d="M60.39,84.65a6.77,6.77,0,0,1,6-1.21c2.45.69,4.33,2.3,6.29,4a19.5,19.5,0,0,1-6,.88,7,7,0,0,1-5.5-2.64C60.86,85.4,60.65,85,60.39,84.65Z"/><path class="cls-1" d="M26,77.63A17.55,17.55,0,0,1,32.74,76a6.76,6.76,0,0,1,5.7,3.26A6.72,6.72,0,0,1,34.38,81a10,10,0,0,1-5.58-1.59C27.89,78.91,27,78.3,26,77.63Z"/><path class="cls-1" d="M91.25,62.11a6.78,6.78,0,0,1,3.38-5.6,17.34,17.34,0,0,1,6.73-1.88,19.12,19.12,0,0,1-3.59,5.47,7,7,0,0,1-5.29,2.16C92.09,62.25,91.71,62.17,91.25,62.11Z"/><path class="cls-1" d="M83.39,74.51a7,7,0,0,1,5.51-4.37,19.4,19.4,0,0,1,6.18.32c0,.09,0,.15,0,.17a15.08,15.08,0,0,1-6,4.46A6.62,6.62,0,0,1,83.39,74.51Z"/><path class="cls-1" d="M35.12,22.44c-.65,3-1.14,6-3.51,8.1a6.74,6.74,0,0,1-3.75,1.62c-.54.07-.75-.14-.78-.67a6.79,6.79,0,0,1,2-5.39A18.17,18.17,0,0,1,35.12,22.44Z"/><path class="cls-1" d="M42.37,87.57c2.22-1.94,4.32-3.82,7.26-4.22a6.31,6.31,0,0,1,4.94,1.44A6.79,6.79,0,0,1,50.77,88C48,88.93,45.23,88.3,42.37,87.57Z"/><path class="cls-1" d="M30.06,57.15a19.67,19.67,0,0,1,1.27,6.48,6.89,6.89,0,0,1-3.15,5.64c-.36.26-.52.09-.71-.2a6.54,6.54,0,0,1-1.06-5.21A16.2,16.2,0,0,1,30.06,57.15Z"/><path class="cls-1" d="M46.17,82.14a6.8,6.8,0,0,1-4.46,3c-2.74.49-5.28-.28-7.93-1.23a18,18,0,0,1,5.68-3.27A6.83,6.83,0,0,1,46.17,82.14Z"/><path class="cls-1" d="M24.65,60.57a6.57,6.57,0,0,1-.84-5.36c.72-2.65,2.49-4.62,4.46-6.63.11.48.22.84.28,1.2a13.14,13.14,0,0,1-.09,6.84A7.05,7.05,0,0,1,24.65,60.57Z"/><path class="cls-1" d="M15.1,62.59c2.71,0,5.17.19,7.44,1.34A6.68,6.68,0,0,1,26,68.81a6.7,6.7,0,0,1-5.1-.22,11.09,11.09,0,0,1-4-3.44C16.31,64.38,15.78,63.55,15.1,62.59Z"/><path class="cls-1" d="M87.3,69.46a6.78,6.78,0,0,1-3.58-5.21,16.48,16.48,0,0,1,1.22-7.14,17.74,17.74,0,0,1,3.43,5.8,6.58,6.58,0,0,1,0,4.41C88.08,68,87.68,68.72,87.3,69.46Z"/><path class="cls-1" d="M20.94,46.57a7,7,0,0,1-3.37-5.23,17.61,17.61,0,0,1,1.05-7.15c2.06,2.7,4.25,5.19,3.87,8.82A7.06,7.06,0,0,1,20.94,46.57Z"/><path class="cls-1" d="M13.63,54.7c2.62.39,5.14.77,7.29,2.27a6.8,6.8,0,0,1,2.83,5.22,6.9,6.9,0,0,1-5.27-1,13.81,13.81,0,0,1-4.15-5.11C14.1,55.68,13.9,55.24,13.63,54.7Z"/><path class="cls-1" d="M22.45,51.23A6.78,6.78,0,0,1,22.74,46c1.27-2.54,3.48-4.1,5.95-5.65,0,.47,0,.78,0,1.08a16.47,16.47,0,0,1-.93,5.43A6.91,6.91,0,0,1,22.45,51.23Z"/><path class="cls-1" d="M33.85,62.53c1.41,2.75,2.89,5.32,2.41,8.45a7,7,0,0,1-2.39,4.09,6.81,6.81,0,0,1-2.37-4.78,13.74,13.74,0,0,1,1.86-6.87C33.48,63.17,33.63,62.92,33.85,62.53Z"/><path class="cls-1" d="M53.49,81.9a6.84,6.84,0,0,1-6.24-2.23,18.49,18.49,0,0,1-3.37-5.9c3.05.7,6,1.28,8.13,3.81A7.18,7.18,0,0,1,53.49,81.9Z"/><path class="cls-1" d="M81.2,62.42c1.39,2.81,2.71,5.48,2.2,8.61a6.43,6.43,0,0,1-2.21,3.87,6.64,6.64,0,0,1-2.42-6.53A19.8,19.8,0,0,1,81.2,62.42Z"/><path class="cls-1" d="M33.61,31.51c-.9,2.78-1.67,5.41-3.83,7.3a6.58,6.58,0,0,1-5.13,1.55,6.89,6.89,0,0,1,1.15-4.23,10.71,10.71,0,0,1,5.1-3.66C31.73,32.13,32.59,31.87,33.61,31.51Z"/><path class="cls-1" d="M99.86,62.61c-.76,1-1.4,2-2.17,2.95-1.31,1.54-2.78,3-4.86,3.34a16.19,16.19,0,0,1-3.42,0c-.39,0-.46-.28-.35-.65a6.89,6.89,0,0,1,4.59-4.86,18.49,18.49,0,0,1,5.8-.8A3.28,3.28,0,0,1,99.86,62.61Z"/><path class="cls-1" d="M81.24,83.85c-2.87,1-5.66,1.85-8.64,1.05A6.3,6.3,0,0,1,68.89,82a6.69,6.69,0,0,1,5.88-1.64A14.56,14.56,0,0,1,80.13,83C80.48,83.25,80.81,83.53,81.24,83.85Z"/><path class="cls-1" d="M61.53,81.82a7,7,0,0,1,4.76-6.72A32.78,32.78,0,0,1,71,73.72c-1.11,2.93-2.32,5.72-5.14,7.35A6.64,6.64,0,0,1,61.53,81.82Z"/><path class="cls-1" d="M14.85,44.68C17.32,46.13,19.59,47.53,21,50a7,7,0,0,1,.4,5.41,5.81,5.81,0,0,1-2.77-1.09,7.28,7.28,0,0,1-2.64-3.47A19.31,19.31,0,0,1,14.85,44.68Z"/><path class="cls-1" d="M89,77.54c-2.83,1.88-5.46,3.73-8.94,3.31a6.84,6.84,0,0,1-3.51-1.63A6.76,6.76,0,0,1,82,76,16.83,16.83,0,0,1,89,77.54Z"/><path class="cls-1" d="M51.83,53.94a24.56,24.56,0,0,1,11.34.16c-.89.41-1.68.72-2.41,1.13a2.84,2.84,0,0,1-2,.32,20.39,20.39,0,0,0-3.08,0,3.42,3.42,0,0,1-1.28-.25c-.77-.32-1.5-.73-2.24-1.11A2.08,2.08,0,0,1,51.83,53.94Z"/><path class="cls-1" d="M64.65,64.37a2.19,2.19,0,0,1-2.36-2.17,2.26,2.26,0,0,1,2.26-2.49A2.44,2.44,0,0,1,67,62.07,2.31,2.31,0,0,1,64.65,64.37Z"/><path class="cls-1" d="M52.57,62.09a2.21,2.21,0,0,1-2.28,2.28,2.42,2.42,0,0,1-2.41-2.3,2.52,2.52,0,0,1,2.4-2.37A2.31,2.31,0,0,1,52.57,62.09Z"/><path class="cls-1" d="M44.44,40v3.06l-.82,0V35.78l.72,0,.15.54c1.9-1,3.56-1.08,4.55,1.16a2.41,2.41,0,0,1-.9,2.83C47.13,41,45.83,41,44.44,40Zm1.89.06a1.83,1.83,0,0,0,2-1.87,1.87,1.87,0,0,0-2-2,1.9,1.9,0,0,0-2,1.9A1.86,1.86,0,0,0,46.33,40.1Z"/><path class="cls-1" d="M71.29,39.07l.57.31c-.58,1.16-2.19,1.71-4,1.38a3.79,3.79,0,0,1-3.13-3.26,3.74,3.74,0,0,1,2.3-4.08,4.1,4.1,0,0,1,4.7.85l-.64.46a3.19,3.19,0,1,0-4.58,4.45A3.36,3.36,0,0,0,71.29,39.07Z"/><path class="cls-1" d="M57.43,66.58c.3,1.54,1.48,2.21,2.76,2.87-1.84,1-2.21,2.76-2.77,4.56-.49-1.82-.94-3.57-2.77-4.57C56,68.82,57.12,68.1,57.43,66.58Z"/><path class="cls-1" d="M41.81,34l-.6.47A2.23,2.23,0,0,0,39,33.83,1.32,1.32,0,0,0,37.88,35c-.05.66.38,1,.93,1.22s1.14.36,1.7.57a1.89,1.89,0,0,1,1.43,2.1,2.06,2.06,0,0,1-1.72,1.83,3.38,3.38,0,0,1-3.44-1l.72-.52a2.31,2.31,0,0,0,2.15.89,1.56,1.56,0,0,0,1.42-1.21c.08-.65-.27-1.13-1.06-1.42-.58-.21-1.19-.37-1.77-.6A1.8,1.8,0,0,1,37,35.07a1.92,1.92,0,0,1,1.37-1.8A3.06,3.06,0,0,1,41.81,34Z"/><path class="cls-1" d="M57.65,35.77l.65,0,.17.65c.85-1.16,2-.63,3.17-.66l.07-1.32h.77l.08,1.24c.48.07.94.13,1.4.23a2.1,2.1,0,0,1,0,.47l-1.42.07c0,1,0,2.05,0,3.05,0,.2.39.44.65.55s.44,0,.7-.07v.67a6,6,0,0,1-1,.11,1.18,1.18,0,0,1-1.26-1.32c0-1,0-1.93,0-3.05-.69,0-1.33,0-2,0a1.31,1.31,0,0,0-1.2,1.31c-.07,1,0,1.93,0,2.93l-.85,0Z"/><path class="cls-1" d="M80.12,39.3l.55.39a2.89,2.89,0,0,1-3.73.74,2.57,2.57,0,0,1-1.12-3.17,2.76,2.76,0,0,1,3.33-1.55,2.25,2.25,0,0,1,1.67,2.7H76.55a1.68,1.68,0,0,0,1,1.55A2.16,2.16,0,0,0,80.12,39.3ZM76.6,37.72H80a1.54,1.54,0,0,0-1.65-1.46A1.73,1.73,0,0,0,76.6,37.72Z"/><path class="cls-1" d="M53.2,40.78a2.6,2.6,0,1,1,0-5.18A2.63,2.63,0,0,1,56,38.22,2.6,2.6,0,0,1,53.2,40.78Zm-.06-.68a1.86,1.86,0,0,0,2-1.88,2,2,0,0,0-3.92,0A1.85,1.85,0,0,0,53.15,40.1Z"/><path class="cls-1" d="M59.12,83.53a1.64,1.64,0,1,1-3.29,0,1.64,1.64,0,0,1,3.29,0Z"/><path class="cls-1" d="M69.65,55.38l1.52-1.18c1.12,1.18.75,2.65.81,4Z"/><path class="cls-1" d="M42.73,57.88c.08-1.21-.31-2.6.72-3.79l1.61,1.17Z"/><path class="cls-1" d="M74,40.61h-.75V35.8H74Z"/><path class="cls-1" d="M74.28,34c-.21.12-.45.36-.63.32s-.37-.34-.55-.52c.19-.15.38-.4.58-.41s.4.23.6.36Z"/><path d="M46.33,40.1a1.86,1.86,0,0,1-2-1.93,1.9,1.9,0,0,1,2-1.9,1.87,1.87,0,0,1,2,2A1.83,1.83,0,0,1,46.33,40.1Z"/><path d="M76.6,37.72a1.73,1.73,0,0,1,1.76-1.46A1.54,1.54,0,0,1,80,37.72Z"/><path d="M53.15,40.1a1.85,1.85,0,0,1-1.91-1.93,2,2,0,0,1,3.92,0A1.86,1.86,0,0,1,53.15,40.1Z"/></g></g></svg>