<svg xmlns="http://www.w3.org/2000/svg" viewBox="0 0 353.84 590.9"><defs><style>.cls-1{fill:#fff;}</style></defs><title>Asset 6</title><g id="Layer_2" data-name="Layer 2"><g id="Layer_1-2" data-name="Layer 1"><path d="M1,592V1.1H354.86V592ZM201,229.9c0,11.76,0,23,0,34.32,0,6.76-.36,7.12-7,7.12H109.7v55.33a7.72,7.72,0,0,0,1.38.34c40.32,0,80.65,0,121-.09,8.49,0,14.9-4.42,17.75-12.27a54.27,54.27,0,0,0,3.39-18c.23-64.82.16-129.64.13-194.45,0-8.92-1.38-17.6-5.62-25.59-4.07-7.67-10.1-11.86-19.22-11.81q-49.24.28-98.48,0a20.69,20.69,0,0,0-16.6,7.66A33.15,33.15,0,0,0,105,94.88q.09,52.24,0,104.48a34,34,0,0,0,6.43,20.1c4.89,7,11.27,10.73,20.25,10.55,18.32-.37,36.66-.11,55-.11Zm39.39,185.39c3.94-2.33,6.37-1.34,8.23,2.45a66.06,66.06,0,0,0,5.46,8.94c.73,1,2.27,2.24,3.35,2.16,4.19-.33,8.34-1.14,13-1.86l-8.11-13c1.89-3.87,4.44-6.6,4.22-9.1a163.1,163.1,0,0,0-3.9-23.6c-.46-1.93-3.73-4.7-5.51-4.56-11.55.93-23,2.56-34.9,4l4.42,51.7,15.21-1.51Zm-61.45,18.95c0-15.62.1-30.93-.07-46.23,0-4.14-3.2-5.58-6.87-5.74-8.66-.37-17.31-.64-26-.92-4.32-.14-7,1.8-7.47,6.26-.44,4.64-.74,9.3-1.07,13.95-.73,10.26-1.45,20.53-2.2,31.3L150.54,434l.76-13.1,12.77.71v12.66Zm-98.52-41c.88-4.6,1.79-8.63,2.39-12.7s-1.34-6.73-5.38-7.65c-8.58-1.95-17.17-3.9-25.79-5.7-4.23-.88-7.17.84-8.28,5.14-3.19,12.38-6.31,24.79-9.52,37.17-1,3.94.43,7,4.09,7.87,10.14,2.52,20.37,4.81,30.67,6.52,2,.34,5.87-1.76,6.61-3.63,1.71-4.32,2-9.2,3-14.09l-14.5-2.75-2,7.83L49.75,408.5l6.59-28.38,11.12,2.39-1,8Zm195.53-19.86,9.75,51.29,38.07-8.51L320.83,405l-22.48,5.19-1.69-8.87,18.86-4.69-2.77-10.86L294.06,390l-1.68-8.32,21.1-5.23-2.87-10.83ZM96.56,376.17l-8,51.7,34,4.23.95-11.38-18.09-2.27,5-40.25Zm96.65,5.89,1.58,51.49h15.37l-2.91-51.49Z" transform="translate(-1.02 -1.1)"/><path class="cls-1" d="M201,229.9H186.63c-18.33,0-36.66-.26-55,.11-9,.18-15.35-3.58-20.25-10.55a34,34,0,0,1-6.43-20.1q.11-52.24,0-104.48a33.15,33.15,0,0,1,8.43-22.38A20.69,20.69,0,0,1,130,64.85q49.24.23,98.48,0c9.12-.05,15.15,4.14,19.22,11.81,4.24,8,5.61,16.67,5.62,25.59,0,64.82.1,129.64-.13,194.45a54.27,54.27,0,0,1-3.39,18c-2.85,7.86-9.26,12.24-17.75,12.27-40.32.14-80.65.09-121,.09a7.72,7.72,0,0,1-1.38-.34V271.35H194c6.65,0,7-.36,7-7.12C201,252.94,201,241.66,201,229.9Zm0-78.32c0-8.33-.09-16.65,0-25,.06-4.06-1.18-6.12-5.72-6-10.82.22-21.65.18-32.47,0-3.8-.06-5.53,1.28-5.52,5.14q.08,25.47,0,50.95c0,3.64,1.39,5.44,5.37,5.38,10.82-.17,21.65-.19,32.47,0,4.46.08,5.9-1.91,5.85-6C200.93,167.9,201,159.74,201,151.58Z" transform="translate(-1.02 -1.1)"/><path class="cls-1" d="M240.39,415.29l1.51,15.61-15.21,1.51-4.42-51.7c11.86-1.44,23.35-3.07,34.9-4,1.78-.14,5.06,2.63,5.51,4.56a163.1,163.1,0,0,1,3.9,23.6c.21,2.5-2.33,5.23-4.22,9.1l8.11,13c-4.71.72-8.86,1.53-13,1.86-1.08.08-2.62-1.12-3.35-2.16a66.06,66.06,0,0,1-5.46-8.94C246.76,413.95,244.33,413,240.39,415.29Zm9.36-26c-13.56,1.5-12.68-1.49-11,11.69.12.95.32,1.88.54,3.15l12-1.55Z" transform="translate(-1.02 -1.1)"/><path class="cls-1" d="M178.94,434.23H164.07V421.58l-12.77-.71-.76,13.1-15.26-1.11c.76-10.77,1.47-21,2.2-31.3.33-4.65.63-9.31,1.07-13.95.43-4.46,3.15-6.4,7.47-6.26,8.66.28,17.32.55,26,.92,3.68.16,6.83,1.6,6.87,5.74C179,403.31,178.94,418.61,178.94,434.23Zm-26.5-40.54V409.5c2,.14,3.81.33,5.62.39s3.9,0,6.41,0c0-2.59-.07-4.73,0-6.87.41-10.94.42-10.94-10.74-9.95A8.82,8.82,0,0,0,152.44,393.69Z" transform="translate(-1.02 -1.1)"/><path class="cls-1" d="M80.42,393.2l-14-2.69,1-8-11.12-2.39L49.75,408.5l11.93,2.71,2-7.83,14.5,2.75c-.93,4.89-1.25,9.76-3,14.09-.74,1.87-4.57,4-6.61,3.63-10.3-1.72-20.53-4-30.67-6.52-3.66-.91-5.11-3.94-4.09-7.87,3.21-12.38,6.33-24.78,9.52-37.17,1.11-4.3,4-6,8.28-5.14,8.62,1.8,17.2,3.75,25.79,5.7,4,.92,6,3.53,5.38,7.65S81.3,388.6,80.42,393.2Z" transform="translate(-1.02 -1.1)"/><path class="cls-1" d="M275.94,373.33l34.66-7.76,2.87,10.83-21.1,5.23,1.68,8.32,18.69-4.2,2.77,10.86-18.86,4.69,1.69,8.87L320.83,405l2.93,11.13-38.07,8.51Z" transform="translate(-1.02 -1.1)"/><path class="cls-1" d="M96.56,376.17l13.82,2-5,40.25,18.09,2.27-.95,11.38-34-4.23Z" transform="translate(-1.02 -1.1)"/><path class="cls-1" d="M193.21,382.06h14l2.91,51.49H194.79Z" transform="translate(-1.02 -1.1)"/><path d="M201,151.58c0,8.16-.07,16.32,0,24.48.05,4.1-1.4,6.09-5.85,6-10.82-.2-21.65-.18-32.47,0-4,.06-5.37-1.74-5.37-5.38q0-25.47,0-50.95c0-3.86,1.72-5.19,5.52-5.14,10.82.17,21.65.21,32.47,0,4.53-.09,5.78,2,5.72,6C200.91,134.93,201,143.26,201,151.58Z" transform="translate(-1.02 -1.1)"/><path d="M249.75,389.29l1.58,13.29-12,1.55c-.22-1.26-.42-2.2-.54-3.15C237.07,387.8,236.19,390.79,249.75,389.29Z" transform="translate(-1.02 -1.1)"/><path d="M152.44,393.69a8.82,8.82,0,0,1,1.29-.6c11.16-1,11.15-1,10.74,9.95-.08,2.14,0,4.28,0,6.87-2.5,0-4.46.05-6.41,0s-3.62-.25-5.62-.39Z" transform="translate(-1.02 -1.1)"/></g></g></svg>