<svg xmlns="http://www.w3.org/2000/svg" viewBox="0 0 557.78 382.62"><defs><style>.cls-1{fill:#fff;}</style></defs><title>Asset 5</title><g id="Layer_2" data-name="Layer 2"><g id="Layer_1-2" data-name="Layer 1"><path d="M558,1V382H1.32V1ZM240.23,197.07c23.69,0,46.95,0,70.21,0a9.62,9.62,0,0,0,9.1-5.69,25.49,25.49,0,0,0,2.63-10q.26-60.12,0-120.25c0-4.4-1.6-9-3.28-13.13-1.85-4.57-5.65-6.76-10.9-6.72-18.7.15-37.39.11-56.09,0a11.48,11.48,0,0,0-9.2,4.15,19.55,19.55,0,0,0-5.12,13.23q0,31.48,0,63,0,.4,0,.81C238,132.7,244.48,139,254.68,139h37.76c0,7.11-.14,13.81.06,20.49.1,3.45-1,4.71-4.59,4.66-14.12-.18-28.25-.08-42.37-.08h-5.31ZM466.66,26.41C460.94,37,456.2,47.2,454,58.48,451.08,73.76,456.37,86,467.8,96.33c8.78-8.38,13.27-18.2,12.72-30.22C479.86,51.64,473.69,39.18,466.66,26.41ZM447.87,68.79c.79-7.64.62-14.8-2.52-21.58-8.23-17.77-24.75-24.9-41.68-32.71,2.63,14,5.31,27.1,13.19,38.34C424.28,63.43,434.77,68.45,447.87,68.79Zm13.77,45a38.49,38.49,0,0,0-4.25-20.21c-5.89-11.2-16-17.41-27-22.28-5.76-2.54-11.84-4.37-18.39-6.75,3.56,12.18,7.34,23.16,14.13,32.82C434.72,109.63,446.53,114.92,461.64,113.8ZM481.87,148c7.64-4.61,13.33-10.7,16.3-18.92,6.08-16.79,1.55-32.94-3.26-49.59-8.76,10.22-16.43,20.48-20.33,33C470.53,125.45,473.6,137.19,481.87,148ZM439.8,113.61l-1.56.35c1.29,9.62,1.89,19.4,4,28.83,3.74,16.72,14.35,27.06,31.52,30.71,4-13.91,2-26.32-7.16-37.6C459.11,126.66,449.61,120,439.8,113.61Zm40,83.14c9.06-1.94,16.6-5.75,22.28-12.68,11.08-13.53,12.41-29.92,13.87-46.93-11.59,6.47-22.22,13.2-30.15,23.27C477.29,171.22,475.59,183.36,479.8,196.75ZM92.69,96.52c5.8-4.75,10.13-10.26,12.49-17.15,3.9-11.43,1.71-22.56-2.38-33.38-2.33-6.16-5.45-12-8.61-18.87-8.1,14.17-14.4,27.64-14,43.25C80.41,80.86,85.22,89.21,92.69,96.52Zm348.67,62.1c-2.63,13-4.88,25.16-2.69,37.61,2.4,13.66,10.35,22.84,22.88,28.81,4.87-7.86,7-16.06,5.59-24.86C464.48,183,453.24,171.08,441.36,158.62Zm80.94,34.14c-15.21,2.09-29.47,4.33-41.52,13.4-9.15,6.89-13.17,16.45-14.21,27.74a35.33,35.33,0,0,0,26.77-4C507.6,221.51,514.87,207.6,522.3,192.75ZM355.43,297.93c-14.23,2.76-27.52,6.12-38.68,14.64-9.8,7.48-13.81,18-14.18,30.25,10.55,1.19,19.94-.77,28.14-7C343.22,326.29,349.38,312.55,355.43,297.93Zm-236-137.85-1.2-.53c-5.07,6.21-10.4,12.24-15.14,18.69-5.13,7-8.87,14.7-9.66,23.54a35.25,35.25,0,0,0,5.84,23.65c12.15-6,20.25-14.76,22.64-27.93C124.22,184.84,122.19,172.41,119.43,160.08ZM156.88,15.35C144.5,20.48,133.16,26.17,124,35.28a37.61,37.61,0,0,0-11.44,29.48c.14,3.35,1.41,4.53,4.74,4.05,7.47-1.08,14.3-3.52,20-8.61C150.56,48.37,153.26,32,156.88,15.35Zm-7.12,290.05c9.47-7.81,15-19.57,14.05-30.76-1.14-13.79-7-25.9-14.06-38.25-6.56,12-11.84,23.85-12.86,37.11C135.92,286.12,140.53,296.57,149.76,305.41Zm-42.4,13.75c.51.78.65,1.21.94,1.42,9.65,6.9,19.67,13.08,31.28,16.22,13.17,3.56,24.87.76,35.61-7.89-4.22-6.75-9.59-11.89-16.72-14.85C140.59,306.62,124.14,313.19,107.35,319.16ZM65.92,80.32c-4.51,13.54-7.51,26.88-5.65,40.71,1.59,11.82,8.17,20.71,18.41,27.2,7.6-9.66,10.77-20.28,8.05-32.13C83.56,102.25,75,91.34,65.92,80.32ZM116.45,274.8c8.93-5.88,15.52-13,18.22-23.12,2.92-11-.07-33.12-6.07-44.6-7.93,10-15.19,20.3-18.79,32.63C106.17,252.22,108.14,263.82,116.45,274.8Zm306.75,27.53a34.88,34.88,0,0,0,16.07,5.24c13.57,1.16,24.46-5.06,34.46-13.15,5.12-4.15,9.7-9,15.2-14.13-13.12-2.31-25-4.05-37.14-1.73C438,281.21,428.92,289.48,423.21,302.33ZM217.82,344.46c-9.22-7.44-19-11.3-30.58-9.59-8.68,1.28-16.41,5-23.72,9.59-4.66,2.93-9.11,6.2-14.35,9.79C162,359,174,362.4,186.7,361.91,199.8,361.41,210,355.58,217.82,344.46Zm-69.2-279.3c-6.54,2.38-12.05,4.11-17.34,6.37-9.21,3.94-17.76,8.92-24.14,17-5.93,7.47-8.24,16-8,25.64,10.89.7,20.38-1.63,28.41-8.71C139.45,94.94,143.63,80.48,148.61,65.15ZM365.53,328.92c6.6-3.19,12-6.93,16.12-12.48,5.4-7.3,7.48-15.65,8.11-24.49a113.76,113.76,0,0,0-2-28.51c-10.35,9.59-20,18.76-25.23,31.37C357.74,306.37,359.22,317.6,365.53,328.92ZM364,374c-3.12-2.66-5.49-4.77-8-6.78-9-7.36-18.43-14-30.15-16.25-10.84-2-20.55.91-29.51,7.35,3.73,6.59,8.37,11.71,14.68,15.12C328.31,382.73,345.68,378.2,364,374ZM46.45,236.72c3.81,5.34,6.77,10,10.2,14.22,7.23,9,15.19,17.1,26.68,20.56a37.13,37.13,0,0,0,23.61-.64c-2.91-11.93-8.58-21.32-19.41-26.81C75,237.69,61.38,236.79,46.45,236.72ZM264.38,358.79c-11-7.61-22.38-10.18-34.73-6.07C217,356.91,207,365.15,197,374.44c15.5,3.9,30.47,7.39,45.85,2.53C252.35,374,259.17,367.55,264.38,358.79ZM411,235.67c-5.85,10.74-11,20.71-13.19,31.93-2.89,14.88,1.65,27.13,12.81,37.32,6.82-6,11.25-13.19,12.62-22C425.91,265.69,418.64,251,411,235.67Zm-339.3,45c9.28,9.63,18.37,18.15,29.86,23.59,10.68,5.06,21.49,5.06,32.38.5,2.92-1.22,3.36-2.71,1.85-5.51-5.39-9.95-13.16-16.89-24.28-19.63C98.45,276.39,85.48,278.29,71.72,280.68ZM94,234.43c-.58-9.22-3.58-17.27-9.84-23.77-12.4-12.88-29.08-14.79-45.81-17.57,5.22,11.2,11.06,21.42,19.43,30C67.76,233.21,79.73,237,94,234.43Zm-7.17-60.8c6.64-.68,15.42-4.8,20.28-9.77,13.43-13.72,13.63-31.26,14.4-48.69-.79-.12-1.12-.28-1.29-.18-12.83,7.65-24.62,16.46-31.6,30.16C84.05,154.21,84,163.72,86.88,173.63ZM80.7,197c2.5-7.14,2.94-15.91,1.1-22.2-5.47-18.61-21-27.19-36.68-37,.81,16.81,2.61,32.31,12.5,45.45C63.29,190.78,71.09,195.31,80.7,197Zm124,101.21c3.65,7.34,6.29,14.18,10.25,20.15a89.43,89.43,0,0,0,14.63,17.39c8,7.13,18,8.75,28.58,7.31-.71-15.87-7.64-27.37-21.47-34.7C227,303.23,216.5,300.7,204.71,298.23Zm-9.73,31c5.62-8.79,7.44-20,4.6-29.46-4.39-14.67-14.63-25-25.81-34.7-.12-.1-.48.07-1,.16a89.42,89.42,0,0,0-1,34.28C174.18,313.43,181.88,323.5,195,329.22Zm216.29,24.66c-2.33-1.77-4.19-3.27-6.13-4.64-9.12-6.46-18.62-12.24-29.75-14.52C363.08,332.2,352.54,336,342.9,344c6.61,9.74,15.32,15.51,26.54,17C383.81,362.83,397.37,359.06,411.27,353.88ZM513.39,237.21l-.36-1.42c-8.36.87-16.8,1.24-25,2.73-16.58,3-28.52,11.82-33.5,28.67-.78,2.64-.15,3.67,2.39,4.24,9.07,2,17.92,1.63,26.26-2.7C496.77,261.65,505.3,249.61,513.39,237.21Zm-59.3,81.87c-14.35-5.52-27.62-10.11-42.12-8.29-11.58,1.45-19.92,8-26.59,17.49,5.75,4.92,12.09,8.18,19.48,9.07C424,339.67,438.44,329.46,454.09,319.08ZM443.9,274a3,3,0,0,0,1-.53,23.74,23.74,0,0,0,1.62-2.3c7.07-11.12,7.74-22.83,3.28-35.05-4-10.94-10.43-20.33-18.61-30.26-2.18,9.43-4.74,17.67-5.9,26.09C422.94,248.91,426.62,263.35,443.9,274ZM338.34,240.22c4-.69,4.86-3.34,4.74-6.82-.15-4.42,0-8.86-.06-13.28-.08-4.2-1.68-5.87-5.9-5.93-5.63-.08-11.27.08-16.9.13-2.49,0-5,0-7.27,0v37.4h10.57V240.79c3-1.37,4.5-.33,5.45,2.31a49,49,0,0,0,3.11,7,3.9,3.9,0,0,0,2.55,1.85c2.62.25,5.29.09,8.56.09ZM279.53,251.8c0-10.79,0-21.13,0-31.47,0-4.64-1.33-6.1-5.93-6.15-6.32-.06-12.64,0-19,.16-4.07.08-5.47,1.55-5.51,5.74-.06,5.38,0,10.76,0,16.14,0,5.18,0,10.35,0,15.48h11v-8.85h9v8.95Zm-72.91-23.7c0-2.87,0-5.51,0-8.16-.08-3.94-1.6-5.68-5.61-5.75-6.58-.11-13.16,0-19.74.17-2.95.08-4.79,1.72-4.78,4.84q.07,14.1.27,28.2c0,2.63,1.47,4.46,4.17,4.51,7.12.12,14.25.28,21.34-.18,1.58-.1,3.91-2.44,4.31-4.12.7-3,.2-6.31.2-9.6h-10.4l-.63,5.31h-8.22V223h8l.64,5.1Zm171.62,9c.13-1.23.28-2.14.3-3.05.14-5.17.13-5.17-4.88-5.18h-9.08v-6.42h15.6V214.5H354.11v37.21h26.29v-8.1H364.59v-6.53ZM216.9,214.55V251.7h23v-8.11h-13v-29Zm84.41.1H291.15v37.08h10.16Zm-12,137.56a9.29,9.29,0,0,0-9-9,9.14,9.14,0,0,0-9.12,9.24,8.93,8.93,0,0,0,9,8.9A9.05,9.05,0,0,0,289.3,352.21Z" transform="translate(-0.23 -0.15)"/><path class="cls-1" d="M558,1H1.32V382H558c-.13.27-.26.76-.41.77-1.07.07-2.15,0-3.23,0H.23Q.23,191.46.23.15q277.07,0,554.14,0A17.53,17.53,0,0,1,558,1Z" transform="translate(-0.23 -0.15)"/><path class="cls-1" d="M240.23,197.07v-33h5.31c14.12,0,28.25-.11,42.37.08,3.62,0,4.69-1.2,4.59-4.66-.2-6.69-.06-13.38-.06-20.49H254.68c-10.2,0-16.69-6.3-17.11-16.58q0-.4,0-.81,0-31.48,0-63a19.55,19.55,0,0,1,5.12-13.23,11.48,11.48,0,0,1,9.2-4.15c18.7.1,37.39.14,56.09,0,5.25,0,9.05,2.15,10.9,6.72,1.68,4.16,3.25,8.73,3.28,13.13q.37,60.12,0,120.25a25.49,25.49,0,0,1-2.63,10,9.62,9.62,0,0,1-9.1,5.69C287.18,197.11,263.91,197.07,240.23,197.07ZM292.44,92.56c0-4.83-.07-9.67,0-14.5.05-2.73-1-3.82-3.81-3.75-5.77.16-11.55.15-17.32,0-2.7-.07-4,.78-3.94,3.62q.11,14.5,0,29c0,2.68,1,3.91,3.81,3.84,5.77-.13,11.55-.15,17.32,0,3.09.08,4-1.32,3.94-4.13C292.37,102,292.44,97.26,292.44,92.56Z" transform="translate(-0.23 -0.15)"/><path class="cls-1" d="M466.66,26.41c7,12.76,13.2,25.23,13.86,39.69.55,12-3.95,21.85-12.72,30.22C456.37,86,451.08,73.76,454,58.48,456.2,47.2,460.94,37,466.66,26.41Z" transform="translate(-0.23 -0.15)"/><path class="cls-1" d="M447.87,68.79c-13.1-.34-23.59-5.35-31-15.95C409,41.6,406.29,28.45,403.67,14.5c16.93,7.81,33.46,14.93,41.68,32.71C448.49,54,448.66,61.15,447.87,68.79Z" transform="translate(-0.23 -0.15)"/><path class="cls-1" d="M461.64,113.8c-15.12,1.12-26.92-4.17-35.53-16.42-6.8-9.67-10.57-20.64-14.13-32.82,6.56,2.38,12.63,4.21,18.39,6.75,11,4.87,21.13,11.08,27,22.28A38.49,38.49,0,0,1,461.64,113.8Z" transform="translate(-0.23 -0.15)"/><path class="cls-1" d="M481.87,148c-8.27-10.8-11.34-22.55-7.29-35.55,3.89-12.48,11.57-22.75,20.33-33,4.81,16.66,9.34,32.8,3.26,49.59C495.2,137.29,489.51,143.39,481.87,148Z" transform="translate(-0.23 -0.15)"/><path class="cls-1" d="M439.8,113.61c9.81,6.37,19.31,13.05,26.8,22.3,9.13,11.27,11.18,23.68,7.16,37.6-17.17-3.65-27.78-14-31.52-30.71-2.11-9.44-2.72-19.21-4-28.83Z" transform="translate(-0.23 -0.15)"/><path class="cls-1" d="M479.8,196.75c-4.21-13.39-2.51-25.53,6-36.34,7.93-10.07,18.55-16.81,30.15-23.27-1.46,17-2.79,33.4-13.87,46.93C496.4,191,488.86,194.81,479.8,196.75Z" transform="translate(-0.23 -0.15)"/><path class="cls-1" d="M92.69,96.52c-7.48-7.31-12.29-15.66-12.54-26.16-.37-15.61,5.93-29.08,14-43.25C97.35,34,100.46,39.82,102.8,46c4.09,10.82,6.29,22,2.38,33.38C102.83,86.26,98.49,91.77,92.69,96.52Z" transform="translate(-0.23 -0.15)"/><path class="cls-1" d="M441.36,158.62c11.89,12.46,23.12,24.39,25.78,41.56,1.36,8.8-.72,17-5.59,24.86-12.53-6-20.47-15.15-22.88-28.81C436.48,183.78,438.73,171.64,441.36,158.62Z" transform="translate(-0.23 -0.15)"/><path class="cls-1" d="M522.3,192.75c-7.43,14.84-14.69,28.75-29,37.14a35.33,35.33,0,0,1-26.77,4c1-11.29,5.05-20.85,14.21-27.74C492.83,197.09,507.09,194.85,522.3,192.75Z" transform="translate(-0.23 -0.15)"/><path class="cls-1" d="M355.43,297.93c-6.05,14.62-12.21,28.36-24.72,37.88-8.2,6.24-17.59,8.2-28.14,7,.37-12.28,4.37-22.77,14.18-30.25C327.91,304,341.2,300.69,355.43,297.93Z" transform="translate(-0.23 -0.15)"/><path class="cls-1" d="M119.43,160.08c2.76,12.33,4.79,24.76,2.49,37.41-2.39,13.17-10.5,21.95-22.64,27.93a35.25,35.25,0,0,1-5.84-23.65c.78-8.84,4.53-16.56,9.66-23.54,4.74-6.45,10.07-12.48,15.14-18.69Z" transform="translate(-0.23 -0.15)"/><path class="cls-1" d="M156.88,15.35c-3.62,16.63-6.32,33-19.6,44.85-5.72,5.09-12.55,7.53-20,8.61-3.33.48-4.6-.7-4.74-4.05A37.61,37.61,0,0,1,124,35.28C133.16,26.17,144.5,20.48,156.88,15.35Z" transform="translate(-0.23 -0.15)"/><path class="cls-1" d="M149.76,305.41c-9.23-8.83-13.84-19.29-12.87-31.9,1-13.26,6.3-25.07,12.86-37.11,7,12.35,12.92,24.47,14.06,38.25C164.74,285.84,159.22,297.6,149.76,305.41Z" transform="translate(-0.23 -0.15)"/><path class="cls-1" d="M107.35,319.16c16.79-6,33.24-12.54,51.11-5.1,7.13,3,12.5,8.11,16.72,14.85-10.73,8.65-22.44,11.45-35.61,7.89-11.61-3.14-21.63-9.32-31.28-16.22C108,320.36,107.86,319.94,107.35,319.16Z" transform="translate(-0.23 -0.15)"/><path class="cls-1" d="M65.92,80.32c9.13,11,17.64,21.92,20.82,35.79,2.71,11.84-.45,22.47-8.05,32.13-10.24-6.5-16.82-15.38-18.41-27.2C58.41,107.21,61.41,93.86,65.92,80.32Z" transform="translate(-0.23 -0.15)"/><path class="cls-1" d="M116.45,274.8c-8.32-11-10.28-22.58-6.63-35.09,3.6-12.33,10.85-22.63,18.79-32.63,6,11.47,9,33.59,6.07,44.6C132,261.84,125.39,268.92,116.45,274.8Z" transform="translate(-0.23 -0.15)"/><path class="cls-1" d="M423.21,302.33c5.71-12.85,14.76-21.12,28.59-23.76,12.13-2.32,24-.58,37.14,1.73-5.5,5.16-10.08,10-15.2,14.13-10,8.09-20.89,14.31-34.46,13.15A34.88,34.88,0,0,1,423.21,302.33Z" transform="translate(-0.23 -0.15)"/><path class="cls-1" d="M217.82,344.46c-7.79,11.13-18,17-31.12,17.46C174,362.4,162,359,149.17,354.25c5.24-3.59,9.68-6.86,14.35-9.79,7.32-4.6,15-8.31,23.72-9.59C198.8,333.15,208.6,337,217.82,344.46Z" transform="translate(-0.23 -0.15)"/><path class="cls-1" d="M148.61,65.15c-5,15.33-9.17,29.79-21,40.26-8,7.08-17.52,9.41-28.41,8.71-.26-9.64,2-18.17,8-25.64,6.38-8,14.93-13,24.14-17C136.56,69.26,142.08,67.53,148.61,65.15Z" transform="translate(-0.23 -0.15)"/><path class="cls-1" d="M365.53,328.92c-6.31-11.32-7.79-22.56-3-34.12,5.21-12.61,14.87-21.78,25.23-31.37a113.76,113.76,0,0,1,2,28.51c-.63,8.85-2.71,17.19-8.11,24.49C377.54,322,372.13,325.74,365.53,328.92Z" transform="translate(-0.23 -0.15)"/><path class="cls-1" d="M364,374c-18.32,4.21-35.69,8.74-52.94-.57-6.31-3.4-10.95-8.53-14.68-15.12,9-6.44,18.66-9.38,29.51-7.35,11.72,2.2,21.15,8.89,30.15,16.25C358.51,369.22,360.89,371.33,364,374Z" transform="translate(-0.23 -0.15)"/><path class="cls-1" d="M46.45,236.72c14.92.07,28.52,1,41.08,7.33,10.83,5.49,16.5,14.87,19.41,26.81a37.13,37.13,0,0,1-23.61.64C71.85,268,63.88,259.9,56.66,250.94,53.23,246.69,50.26,242.06,46.45,236.72Z" transform="translate(-0.23 -0.15)"/><path class="cls-1" d="M264.38,358.79c-5.22,8.77-12,15.18-21.54,18.19-15.38,4.86-30.35,1.37-45.85-2.53,10-9.29,20.05-17.53,32.65-21.72C242,348.61,253.4,351.18,264.38,358.79Z" transform="translate(-0.23 -0.15)"/><path class="cls-1" d="M411,235.67c7.63,15.38,14.89,30,12.23,47.23-1.37,8.83-5.79,16-12.62,22-11.16-10.19-15.7-22.44-12.81-37.32C400,256.39,405.16,246.41,411,235.67Z" transform="translate(-0.23 -0.15)"/><path class="cls-1" d="M71.72,280.68c13.76-2.39,26.73-4.29,39.81-1.07,11.11,2.74,18.88,9.69,24.28,19.63,1.52,2.8,1.08,4.29-1.85,5.51-10.89,4.56-21.69,4.56-32.38-.5C90.09,298.83,81,290.31,71.72,280.68Z" transform="translate(-0.23 -0.15)"/><path class="cls-1" d="M94,234.43c-14.31,2.55-26.29-1.22-36.21-11.36-8.37-8.55-14.21-18.77-19.43-30,16.73,2.78,33.41,4.69,45.81,17.57C90.46,217.16,93.46,225.21,94,234.43Z" transform="translate(-0.23 -0.15)"/><path class="cls-1" d="M86.88,173.63c-2.92-9.91-2.82-19.42,1.79-28.47,7-13.7,18.77-22.51,31.6-30.16.17-.1.5.06,1.29.18-.77,17.43-1,35-14.4,48.69C102.29,168.83,93.51,172.95,86.88,173.63Z" transform="translate(-0.23 -0.15)"/><path class="cls-1" d="M80.7,197c-9.61-1.71-17.41-6.24-23.08-13.77-9.89-13.13-11.69-28.64-12.5-45.45,15.72,9.83,31.22,18.41,36.68,37C83.64,181.11,83.2,189.88,80.7,197Z" transform="translate(-0.23 -0.15)"/><path class="cls-1" d="M204.71,298.23c11.79,2.47,22.27,5,32,10.14,13.84,7.33,20.76,18.83,21.47,34.7-10.57,1.44-20.57-.18-28.58-7.31A89.43,89.43,0,0,1,215,318.38C211,312.41,208.37,305.57,204.71,298.23Z" transform="translate(-0.23 -0.15)"/><path class="cls-1" d="M195,329.22c-13.11-5.72-20.81-15.79-23.22-29.71a89.42,89.42,0,0,1,1-34.28c.5-.09.87-.27,1-.16,11.18,9.65,21.42,20,25.81,34.7C202.43,309.25,200.61,320.43,195,329.22Z" transform="translate(-0.23 -0.15)"/><path class="cls-1" d="M411.27,353.88c-13.91,5.18-27.46,9-41.83,7.09-11.22-1.45-19.93-7.23-26.54-17,9.63-8,20.17-11.81,32.49-9.29,11.13,2.28,20.63,8.06,29.75,14.52C407.08,350.61,408.94,352.11,411.27,353.88Z" transform="translate(-0.23 -0.15)"/><path class="cls-1" d="M513.39,237.21c-8.09,12.4-16.62,24.44-30.26,31.52-8.34,4.33-17.19,4.74-26.26,2.7-2.54-.57-3.17-1.59-2.39-4.24,5-16.85,16.92-25.67,33.5-28.67,8.24-1.49,16.69-1.86,25-2.73Z" transform="translate(-0.23 -0.15)"/><path class="cls-1" d="M454.09,319.08c-15.66,10.38-30.12,20.58-49.23,18.27-7.4-.9-13.73-4.15-19.48-9.07,6.67-9.53,15-16,26.59-17.49C426.47,309,439.74,313.56,454.09,319.08Z" transform="translate(-0.23 -0.15)"/><path class="cls-1" d="M443.9,274c-17.28-10.62-21-25.05-18.63-42,1.16-8.43,3.72-16.66,5.9-26.09,8.18,9.93,14.62,19.32,18.61,30.26,4.45,12.22,3.79,23.93-3.28,35.05a23.74,23.74,0,0,1-1.62,2.3A3,3,0,0,1,443.9,274Z" transform="translate(-0.23 -0.15)"/><path class="cls-1" d="M338.34,240.22,343.19,252c-3.27,0-5.93.16-8.56-.09a3.9,3.9,0,0,1-2.55-1.85,49,49,0,0,1-3.11-7c-.95-2.63-2.43-3.67-5.45-2.31v10.93H312.95v-37.4c2.29,0,4.78,0,7.27,0,5.63,0,11.27-.2,16.9-.13,4.23.06,5.82,1.73,5.9,5.93.09,4.43-.09,8.86.06,13.28C343.19,236.88,342.36,239.52,338.34,240.22ZM323.12,232H332v-9.09h-8.7c-.06,1.11-.14,2-.15,2.93C323.1,227.83,323.12,229.82,323.12,232Z" transform="translate(-0.23 -0.15)"/><path class="cls-1" d="M279.53,251.8H269.2v-8.95h-9v8.85h-11c0-5.13,0-10.31,0-15.48,0-5.38,0-10.76,0-16.14,0-4.18,1.44-5.66,5.51-5.74,6.32-.13,12.64-.22,19-.16,4.59,0,5.92,1.51,5.93,6.15C279.54,230.67,279.53,241,279.53,251.8ZM269,234.17c0-2.32,0-4.18,0-6,0-6.35-.5-6.84-6.85-5.9a3.12,3.12,0,0,0-2.15,2c-.24,3.27-.1,6.57-.1,9.93Z" transform="translate(-0.23 -0.15)"/><path class="cls-1" d="M206.62,228.1H196.19l-.64-5.1h-8v20.32h8.22l.63-5.31h10.4c0,3.29.51,6.58-.2,9.6-.39,1.68-2.72,4-4.31,4.12-7.09.45-14.23.3-21.34.18-2.7,0-4.13-1.88-4.17-4.51q-.22-14.1-.27-28.2c0-3.12,1.83-4.76,4.78-4.84,6.58-.18,13.16-.27,19.74-.17,4,.06,5.54,1.81,5.61,5.75C206.66,222.59,206.62,225.23,206.62,228.1Z" transform="translate(-0.23 -0.15)"/><path class="cls-1" d="M378.24,237.07H364.59v6.53h15.82v8.1H354.11V214.5h26.08v7.92h-15.6v6.42h9.08c5,0,5,0,4.88,5.18C378.52,234.93,378.37,235.84,378.24,237.07Z" transform="translate(-0.23 -0.15)"/><path class="cls-1" d="M216.9,214.55h10v29h13v8.11h-23Z" transform="translate(-0.23 -0.15)"/><path class="cls-1" d="M301.31,214.65v37.08H291.15V214.65Z" transform="translate(-0.23 -0.15)"/><path class="cls-1" d="M289.3,352.21a9.05,9.05,0,0,1-9.16,9.16,8.93,8.93,0,0,1-9-8.9,9.14,9.14,0,0,1,9.12-9.24A9.29,9.29,0,0,1,289.3,352.21Z" transform="translate(-0.23 -0.15)"/><path d="M292.44,92.56c0,4.7-.07,9.4,0,14.1.06,2.81-.85,4.21-3.94,4.13-5.77-.16-11.55-.14-17.32,0-2.83.06-3.82-1.17-3.81-3.84q.08-14.5,0-29c0-2.84,1.24-3.69,3.94-3.62,5.77.15,11.55.16,17.32,0,2.82-.08,3.87,1,3.81,3.75C292.37,82.89,292.44,87.72,292.44,92.56Z" transform="translate(-0.23 -0.15)"/><path d="M323.12,232c0-2.19,0-4.17,0-6.16,0-.91.09-1.82.15-2.93H332V232Z" transform="translate(-0.23 -0.15)"/><path d="M269,234.17h-9.11c0-3.36-.14-6.66.1-9.93a3.12,3.12,0,0,1,2.15-2c6.35-.94,6.85-.45,6.85,5.9C269,230,269,231.85,269,234.17Z" transform="translate(-0.23 -0.15)"/></g></g></svg>